HIERARCHY
ROOT Pelvis
{
	OFFSET 0.000000 0.000000 0.000000
	CHANNELS 6 Xposition Yposition Zposition Zrotation Yrotation Xrotation 
	JOINT Left_hip
	{
		OFFSET 0.069463 -0.088608 -0.009542
		CHANNELS 3 Zrotation Yrotation Xrotation
		JOINT Left_knee
		{
			OFFSET 0.030639 -0.359740 -0.005288
			CHANNELS 3 Zrotation Yrotation Xrotation
			JOINT Left_ankle
			{
				OFFSET -0.011068 -0.376034 -0.042462
				CHANNELS 3 Zrotation Yrotation Xrotation
				JOINT Left_foot
				{
					OFFSET 0.023192 -0.053321 0.111332
					CHANNELS 3 Zrotation Yrotation Xrotation
					End Site
					{
						OFFSET 0.000000 0.000000 0.000000
					}
				}
			}
		}
	}
	JOINT Right_hip
	{
		OFFSET -0.067438 -0.088025 -0.006263
		CHANNELS 3 Zrotation Yrotation Xrotation
		JOINT Right_knee
		{
			OFFSET -0.035962 -0.366229 -0.008063
			CHANNELS 3 Zrotation Yrotation Xrotation
			JOINT Right_ankle
			{
				OFFSET 0.013608 -0.375719 -0.040481
				CHANNELS 3 Zrotation Yrotation Xrotation
				JOINT Right_foot
				{
					OFFSET -0.021034 -0.045527 0.114617
					CHANNELS 3 Zrotation Yrotation Xrotation
					End Site
					{
						OFFSET 0.000000 0.000000 0.000000
					}
				}
			}
		}
	}
	JOINT Spine1
	{
		OFFSET -0.002610 0.101823 -0.019986
		CHANNELS 3 Zrotation Yrotation Xrotation
		JOINT Spine2
		{
			OFFSET 0.004114 0.128714 -0.000938
			CHANNELS 3 Zrotation Yrotation Xrotation
			JOINT Spine3
			{
				OFFSET 0.002191 0.048470 0.027684
				CHANNELS 3 Zrotation Yrotation Xrotation
				JOINT Neck
				{
					OFFSET -0.002856 0.198873 -0.044022
					CHANNELS 3 Zrotation Yrotation Xrotation
					JOINT Head
					{
						OFFSET 0.002981 0.062960 0.049860
						CHANNELS 3 Zrotation Yrotation Xrotation
						End Site
						{
							OFFSET 0.000000 0.000000 0.000000
						}
					}
				}
				JOINT Left_collar
				{
					OFFSET 0.073708 0.112550 -0.033440
					CHANNELS 3 Zrotation Yrotation Xrotation
					JOINT Left_shoulder
					{
						OFFSET 0.083291 0.030786 -0.008013
						CHANNELS 3 Zrotation Yrotation Xrotation
						JOINT Left_elbow
						{
							OFFSET 0.245601 -0.011792 -0.027873
							CHANNELS 3 Zrotation Yrotation Xrotation
							JOINT Left_wrist
							{
								OFFSET 0.232258 0.008622 -0.000487
								CHANNELS 3 Zrotation Yrotation Xrotation
								JOINT Left_palm
								{
									OFFSET 0.077300 -0.009457 -0.012851
									CHANNELS 3 Zrotation Yrotation Xrotation
									End Site
									{
										OFFSET 0.000000 0.000000 0.000000
									}
								}
							}
						}
					}
				}
				JOINT Right_collar
				{
					OFFSET -0.075339 0.110574 -0.037874
					CHANNELS 3 Zrotation Yrotation Xrotation
					JOINT Right_shoulder
					{
						OFFSET -0.086522 0.031207 -0.009986
						CHANNELS 3 Zrotation Yrotation Xrotation
						JOINT Right_elbow
						{
							OFFSET -0.237313 -0.011478 -0.019859
							CHANNELS 3 Zrotation Yrotation Xrotation
							JOINT Right_wrist
							{
								OFFSET -0.237599 0.007976 -0.003742
								CHANNELS 3 Zrotation Yrotation Xrotation
								JOINT Right_palm
								{
									OFFSET -0.076920 -0.006943 -0.009920
									CHANNELS 3 Zrotation Yrotation Xrotation
									End Site
									{
										OFFSET 0.000000 0.000000 0.000000
									}
								}
							}
						}
					}
				}
			}
		}
	}
}
MOTION
Frames: 13
Frame Time: 0.100000
0.000000 0.000000 0.000000 176.804776 28.867458 -24.535103 1.429693 2.303074 18.497813 1.730003 -17.993273 -1.402437 4.569470 3.654522 -6.379634 -10.434731 8.614441 -2.286733 0.054487 -3.350297 20.792140 -2.227008 5.977552 -3.513579 -6.694199 -6.264023 -7.741382 12.225676 -2.645676 10.968220 -0.128303 0.568060 4.655483 0.457099 -4.595332 7.412675 -0.619735 -3.077206 -0.955704 0.371842 -14.046017 9.078657 -0.672482 -17.041948 2.221282 -31.773931 -0.604257 6.546079 -50.258386 -7.337572 8.748802 1.031476 -15.134294 16.210033 -13.631978 4.154659 -0.497276 -9.021247 -3.505017 -9.046886 33.161363 5.717959 4.276793 52.107206 2.348551 11.209618 -6.227931 10.327854 0.338801 9.488557 -4.569296 0.005276 11.726115 8.851693 -3.685017 
0.001012 -0.000753 0.001689 176.820299 29.454230 -24.557783 1.601125 2.349690 18.322551 1.475715 -18.177355 -1.106430 4.306008 3.250710 -6.282801 -10.386280 8.559851 -2.424833 -0.156035 -3.582113 20.846886 -2.044139 5.705430 -3.383339 -6.595059 -6.115107 -7.688131 12.143074 -2.686975 10.845506 -0.031776 0.665204 4.831901 0.375601 -4.514027 7.337357 -0.632302 -2.993580 -1.005547 0.262670 -14.145503 8.983247 -0.576857 -17.108795 2.109027 -31.679272 -0.661515 6.417486 -50.458252 -7.403822 8.701228 1.156798 -15.120545 16.148476 -13.493710 4.097778 -0.552361 -8.953159 -3.459715 -8.943887 32.911336 5.815444 4.297423 52.096673 2.348948 11.100442 -6.145548 10.324660 0.447532 9.445667 -4.525561 0.059232 11.654335 8.828987 -3.595220 
0.002993 -0.002979 0.004333 177.008936 30.268743 -24.399261 2.242332 2.629614 18.327572 0.753547 -18.516580 -1.453645 3.348851 2.058986 -5.598072 -9.944953 8.290373 -2.752839 -0.565532 -4.045641 20.790286 -1.863946 5.217093 -3.178183 -6.131856 -6.038050 -7.363778 11.671584 -2.426002 10.326670 -0.262211 0.604760 4.604152 0.283771 -4.472352 7.149147 -0.686740 -2.989040 -1.094932 -0.091735 -13.644640 9.097538 -0.889553 -16.908404 2.510060 -31.258341 -0.065536 6.377586 -50.579612 -7.275983 8.738011 1.224014 -16.438822 16.649681 -13.027704 3.508763 -0.787150 -8.851247 -3.398870 -8.759532 32.859579 5.363571 4.200946 52.344367 2.236021 11.123706 -6.081974 10.742831 0.722053 9.217264 -4.284006 0.009973 11.591801 8.746343 -3.386503 
0.003914 -0.003793 0.003590 176.975184 33.187168 -24.920109 2.100618 2.433982 17.927829 0.311535 -19.604256 -0.697880 2.785569 0.785350 -5.169386 -9.964425 8.029866 -3.395165 -1.151113 -5.229717 20.963813 -1.728887 3.513293 -2.149945 -6.231628 -6.535965 -7.508701 11.755919 -2.395873 9.988064 -0.289609 0.758686 4.811875 -0.160230 -4.274433 7.037011 -0.932218 -2.851037 -1.022550 -1.363849 -11.875184 9.514426 -1.927700 -15.335273 2.657508 -30.690743 0.336682 6.348683 -50.320577 -7.077389 8.994267 1.009662 -19.142527 18.275463 -12.753828 2.956752 -0.975648 -8.754297 -3.340267 -8.338793 32.914121 4.657839 4.373969 53.030528 1.665269 10.842487 -6.290615 11.490488 0.835817 9.164272 -3.986949 -0.276095 11.533992 8.730737 -3.060393 
0.006069 -0.000747 -0.004617 175.904615 41.794546 -26.307137 0.703479 0.950480 16.362714 0.041357 -22.678255 0.717724 2.672937 -1.517495 -4.975236 -10.613611 8.166460 -4.313065 -1.838586 -7.161749 21.539204 -2.068507 -0.101078 -0.714324 -6.617124 -9.326714 -7.908609 11.830049 -1.657286 9.624518 -0.361848 1.654899 5.732702 -0.794768 -3.428822 6.615401 -0.929718 -2.381448 -0.727729 -3.322710 -6.816262 11.098676 -4.147806 -10.353185 3.856402 -30.294399 0.543328 5.773360 -49.794318 -7.967416 8.745061 1.174921 -20.938556 18.874364 -12.892345 3.008104 -1.530696 -8.163856 -3.463699 -7.325652 33.388972 3.360047 5.120299 53.483004 0.563886 10.166851 -6.781067 10.452232 -1.022474 9.622744 -3.840049 -1.187904 11.182912 8.663015 -2.310546 
0.012381 0.004883 -0.024740 172.090415 55.903534 -28.659168 -1.716618 -2.475762 11.586906 -0.763008 -26.500618 3.537006 3.216099 -4.338057 -5.828606 -12.014261 8.737888 -5.004034 -2.622931 -9.906820 21.236128 -2.114775 -5.951674 -0.327294 -7.167007 -13.369211 -7.482726 11.882559 -0.683973 9.621597 0.498955 3.148164 8.858446 -1.736564 -2.105605 5.466565 -0.592956 -1.291034 -0.584796 -4.907795 0.297686 11.170173 -5.640380 -2.495647 3.652813 -30.168049 0.096180 4.927275 -49.073436 -9.223230 7.721686 2.043525 -22.691712 17.295816 -13.187196 2.764423 -3.594471 -6.756777 -3.701070 -5.421097 33.490251 3.147283 6.914285 54.024750 -0.261089 9.761140 -6.612120 8.358345 -2.510206 10.256702 -3.631626 -1.716558 10.234850 8.574161 -1.104447 
0.026892 0.011776 -0.048929 163.427289 69.880534 -35.411684 -3.678132 -4.351927 5.927258 -1.698003 -24.791270 6.239354 4.379779 -4.575758 -5.620752 -13.159942 9.634991 -5.591581 -3.655232 -12.676884 19.562255 -1.994978 -12.336876 1.028219 -8.570972 -17.082856 -6.978025 12.757388 -0.204481 9.769802 2.598008 4.577627 13.265070 -2.729015 -0.371898 4.624226 -0.407900 0.343504 -0.472575 -6.575899 5.745251 11.045051 -6.875275 4.294582 3.401072 -29.971012 -1.495943 4.535196 -47.820932 -10.044079 6.801206 2.531728 -24.219797 16.556875 -13.236758 2.613943 -4.374732 -5.245300 -3.824629 -4.338898 32.742461 5.097957 9.614438 53.070015 0.334465 9.786859 -5.317389 6.997499 -2.481430 10.074541 -3.367056 -0.543257 9.101513 8.428130 -0.620435 
0.046074 0.018456 -0.067257 134.283853 80.185665 -63.234085 -1.745713 0.291094 -0.935333 -1.545636 -7.289624 11.745781 7.012116 2.641002 -5.874470 -13.040907 10.949853 -5.494181 -5.256596 -15.948302 19.059124 -1.143906 -18.292659 2.174285 -10.214285 -19.326460 -6.390007 14.028865 -1.442321 8.835105 4.475136 4.914814 16.909931 -2.842575 0.018746 3.549408 0.042996 0.914937 0.468338 -7.147678 7.186575 12.117097 -7.533006 9.096105 4.551038 -29.003943 -1.480844 4.980942 -47.425400 -9.272310 5.006615 2.017490 -24.091539 17.899947 -12.928791 2.967942 -3.936920 -3.778442 -3.678926 -5.098417 30.183290 5.841675 10.492151 50.072795 2.884277 9.064366 -4.477825 7.407354 -2.539572 7.488364 -3.130184 1.047988 8.558299 8.079592 -1.606448 
0.060191 0.025179 -0.084659 79.454595 82.236289 -116.383695 0.224262 0.154133 -10.111664 -1.439930 -2.558785 22.552530 4.871049 3.434263 -3.741137 -10.139708 11.780122 -8.208377 -6.338366 -17.352764 17.167804 -1.374552 -21.448100 4.340889 -10.740031 -21.654221 -5.775954 12.568105 -1.999767 7.823349 5.584422 4.746265 19.699855 -3.042285 -0.184841 1.474823 0.178686 0.568285 0.945775 -6.579692 6.248548 12.818806 -7.444490 10.089403 6.709215 -29.362296 1.056133 4.441930 -48.719744 -7.714311 3.046029 4.508601 -19.236255 13.480731 -12.298392 3.662849 -4.807972 -2.749975 -3.544696 -5.634464 28.049744 5.138252 8.697938 47.095278 5.921294 7.667738 -6.883566 9.837785 -6.999075 4.236904 -2.480371 0.249964 7.626687 7.522297 -0.853151 
0.058745 0.028714 -0.106502 75.945205 82.154152 -118.886632 3.797711 -1.053843 -14.388561 -2.244623 -4.865500 28.364246 1.598849 2.136725 -2.444018 -6.329349 12.354634 -9.718336 -8.121182 -17.110029 16.219827 -1.117649 -20.796356 5.007590 -10.111656 -21.479987 -5.142772 10.923174 -3.136297 6.907233 5.628897 5.482206 20.265165 -3.412065 0.451511 1.528515 0.042997 0.980069 0.867598 -5.957889 6.057382 13.448895 -7.843952 9.590893 7.164345 -29.502012 3.667378 4.556305 -49.869840 -4.164304 2.851687 5.155985 -16.250898 11.910646 -11.872098 3.773895 -5.771906 -3.430041 -3.549242 -7.391426 26.965785 5.223993 7.420857 45.741620 9.842296 6.622578 -9.764220 15.434634 -10.532856 2.091752 -1.646589 -1.900010 8.130879 7.352043 -1.210829 
0.048809 0.035490 -0.137961 111.476674 81.431493 -81.825964 7.532867 -1.379301 -12.558040 -2.102431 -11.872858 22.441822 -3.219902 -0.269442 -0.222674 -1.211441 12.049236 -10.028361 -9.965361 -15.833677 13.933480 -0.242132 -18.619093 5.601538 -9.199851 -18.882152 -5.194286 10.877021 -5.288055 6.531842 5.941945 5.501057 19.297593 -4.072619 1.698528 2.137488 -0.277320 1.988180 0.100438 -5.617317 7.858690 13.822392 -8.901853 9.358185 6.581788 -29.718328 5.943643 4.243456 -51.806906 -0.516994 3.579845 5.529972 -14.002061 10.636977 -10.981835 2.988275 -6.540743 -4.391364 -3.382079 -9.425507 26.331053 6.113764 6.970343 46.524664 14.207139 7.065064 -11.938723 21.778679 -11.530717 0.856221 -0.371901 -3.643732 8.623483 7.127844 -1.947068 
0.026192 0.048760 -0.184671 137.958374 76.313801 -53.295433 10.592611 -3.154807 -8.565974 -1.405216 -22.462195 13.015961 -9.511620 -3.978382 4.687628 4.222414 11.248006 -11.106037 -11.732018 -13.805313 10.466042 0.857079 -15.615294 6.348233 -8.120297 -16.242393 -4.734990 10.348177 -6.560046 6.350829 6.631740 4.866060 17.211362 -4.141727 2.651937 3.417384 -0.289146 2.645448 -0.865206 -5.543299 10.325173 13.682598 -9.551541 9.272396 5.444139 -29.670362 6.563199 3.912462 -53.735286 1.319056 5.326423 5.513494 -13.313847 10.206923 -9.840400 1.937694 -7.051644 -5.589155 -3.273949 -11.087409 25.870200 7.094812 7.274417 48.333882 16.616518 8.867467 -12.985883 28.227529 -9.859630 0.638149 0.930304 -4.443792 8.908887 6.907184 -2.600905 
-0.003385 0.065426 -0.253194 147.050814 72.051488 -42.238565 9.153541 -3.117861 -9.082817 -3.524879 -22.122983 14.955186 -3.269950 -4.733536 -4.015403 0.574069 12.285634 -8.076147 -14.133315 -12.660961 6.822616 -0.731770 -13.107571 6.418447 -3.194514 -15.579769 -1.320612 5.632464 -4.184006 4.043014 5.434676 4.585027 16.959078 -3.500670 2.062858 2.656710 -0.295009 1.957903 -0.570914 -4.957333 9.316720 12.072987 -8.723488 8.259122 5.637970 -28.826621 5.071513 4.341443 -52.843501 -1.043777 5.593513 4.339633 -15.385603 12.744746 -8.855363 2.270266 -4.396859 -7.098814 -3.971564 -11.342363 26.062829 6.751863 6.916550 50.232204 15.197496 10.907256 -12.502204 31.483780 -7.620348 0.821171 1.102572 -2.633148 10.625554 8.017371 -3.916066 
